<svg width="200" height="33" viewBox="0 0 200 33" fill="none" xmlns="http://www.w3.org/2000/svg">
<g id="Logo">
<path id="Vector 2 (Stroke)" fill-rule="evenodd" clip-rule="evenodd" d="M32.5212 1.63058L39.229 4.25518V11.534H36.3957V7.75216L31.6542 10.6586V23.1007L19.8087 30.088L7.61143 23.1135V12.2906L1.39162 15.7977L0 13.3297L8.33228 8.63139L19.8087 2.06904L30.2235 8.21237L34.643 5.50327L31.4888 4.26912L32.5212 1.63058ZM27.4492 9.8654L19.7866 5.34551L11.882 9.8654L19.7866 14.3853L27.4492 9.8654ZM18.381 16.8454L10.4447 12.3074V21.4698L18.381 26.0078V16.8454ZM21.2143 25.9693L28.8209 21.4825V12.3458L21.2143 16.8326V25.9693Z" fill="#0052FF"/>
<g id="Catalyst">
<path d="M76.0731 19.0761C75.517 20.3575 74.7916 21.506 73.8971 22.5214C73.0025 23.5127 71.9991 24.3589 70.8869 25.0601C69.7748 25.7613 68.5901 26.3053 67.3328 26.6921C66.0756 27.0548 64.8184 27.2361 63.5611 27.2361H63.0171C61.1313 27.2361 59.3542 26.8734 57.6859 26.1481C56.0419 25.4228 54.6033 24.4436 53.3702 23.2105C52.1613 21.9533 51.1942 20.5026 50.4689 18.8585C49.7677 17.2144 49.4172 15.4737 49.4172 13.6361C49.4172 11.7745 49.7677 10.0216 50.4689 8.3775C51.1942 6.70924 52.1734 5.25858 53.4065 4.02552C54.6395 2.79246 56.0781 1.81326 57.7222 1.08794C59.3905 0.362604 61.1554 -6.10352e-05 63.0171 -6.10352e-05H63.5974C64.8788 -6.10352e-05 66.136 0.193361 67.3691 0.580204C68.6263 0.942869 69.811 1.47478 70.9232 2.17593C72.0354 2.87708 73.0388 3.73539 73.9333 4.75085C74.8279 5.74214 75.5412 6.8664 76.0731 8.12364L72.0112 9.97323C71.2375 8.35333 70.1254 7.02355 68.6747 5.98391C67.224 4.94427 65.5316 4.42445 63.5974 4.42445H63.0534C61.8203 4.42445 60.6477 4.66623 59.5355 5.14978C58.4475 5.60916 57.4804 6.26196 56.6342 7.10818C55.788 7.93022 55.111 8.90941 54.6033 10.0458C54.1197 11.1579 53.878 12.3547 53.878 13.6361C53.878 14.9417 54.1318 16.1627 54.6395 17.2991C55.1473 18.4112 55.8122 19.3783 56.6342 20.2004C57.4804 20.9982 58.4596 21.639 59.5718 22.1225C60.684 22.5819 61.8324 22.8116 63.0171 22.8116H63.5974C65.5316 22.8116 67.1878 22.3159 68.5659 21.3246C69.9682 20.3092 71.1287 18.9552 72.0475 17.2628L76.0731 19.0761Z" fill="#0052FF"/>
<path d="M99.5347 27.2361H95.1827V25.5678L94.82 25.8217C93.9496 26.4261 92.9946 26.8976 91.955 27.2361C90.9395 27.5504 89.8878 27.7076 88.7998 27.7076C87.2766 27.7076 85.8622 27.4174 84.5566 26.8372C83.251 26.2569 82.1146 25.4832 81.1475 24.5161C80.1804 23.5248 79.4188 22.3764 78.8627 21.0708C78.3067 19.7652 78.0286 18.3871 78.0286 16.9364C78.0286 15.4857 78.3067 14.1076 78.8627 12.802C79.443 11.4722 80.2167 10.3238 81.1838 9.3567C82.1751 8.36541 83.3235 7.59173 84.6291 7.03564C85.9347 6.45538 87.3249 6.17733 88.7998 6.20151C90.1537 6.24987 91.2901 6.4312 92.2088 6.74551C93.1518 7.05982 94.0463 7.5192 94.8925 8.12364L95.1827 8.34124V7.79724H99.5347V27.2361ZM95.1827 16.9364C95.1827 15.9935 95.0013 15.1352 94.6387 14.3615C94.276 13.5636 93.7925 12.8866 93.188 12.3306C92.6078 11.7503 91.9308 11.3151 91.1571 11.025C90.3834 10.7106 89.5976 10.5535 88.7998 10.5535C87.9294 10.5535 87.1073 10.7227 86.3337 11.0612C85.56 11.3997 84.883 11.8591 84.3027 12.4394C83.7225 13.0196 83.2631 13.6966 82.9246 14.4703C82.5861 15.244 82.4169 16.066 82.4169 16.9364C82.4169 17.9035 82.5982 18.786 82.9609 19.5839C83.3235 20.3575 83.795 21.0345 84.3753 21.6148C84.9797 22.1709 85.6688 22.6061 86.4424 22.9204C87.2161 23.2105 88.0019 23.3556 88.7998 23.3556C89.7669 23.3556 90.6373 23.1742 91.411 22.8116C92.2088 22.4489 92.8858 21.9654 93.4419 21.3609C93.998 20.7565 94.4211 20.0795 94.7112 19.33C95.0255 18.5563 95.1827 17.7584 95.1827 16.9364Z" fill="#0052FF"/>
<path d="M112.558 27.2361C111.567 27.2361 110.624 27.0427 109.73 26.6558C108.859 26.269 108.098 25.7492 107.445 25.0964C106.792 24.4194 106.272 23.6457 105.885 22.7753C105.523 21.8807 105.341 20.9257 105.341 19.9103V9.82816H102.367V5.36738H105.341V0.362604H109.766V5.36738H113.828V9.82816H109.766V20.0191C109.766 20.3817 109.826 20.7323 109.947 21.0708C110.092 21.3851 110.286 21.6752 110.527 21.9412C110.769 22.2071 111.059 22.4247 111.398 22.594C111.736 22.739 112.111 22.8116 112.522 22.8116H115.496V27.2361H112.558Z" fill="#0052FF"/>
<path d="M139.166 27.2361H134.814V25.5678L134.451 25.8217C133.581 26.4261 132.626 26.8976 131.586 27.2361C130.571 27.5504 129.519 27.7076 128.431 27.7076C126.908 27.7076 125.493 27.4174 124.188 26.8372C122.882 26.2569 121.746 25.4832 120.779 24.5161C119.812 23.5248 119.05 22.3764 118.494 21.0708C117.938 19.7652 117.66 18.3871 117.66 16.9364C117.66 15.4857 117.938 14.1076 118.494 12.802C119.074 11.4722 119.848 10.3238 120.815 9.3567C121.806 8.36541 122.955 7.59173 124.26 7.03564C125.566 6.45538 126.956 6.17733 128.431 6.20151C129.785 6.24987 130.921 6.4312 131.84 6.74551C132.783 7.05982 133.677 7.5192 134.524 8.12364L134.814 8.34124V7.79724H139.166V27.2361ZM134.814 16.9364C134.814 15.9935 134.632 15.1352 134.27 14.3615C133.907 13.5636 133.424 12.8866 132.819 12.3306C132.239 11.7503 131.562 11.3151 130.788 11.025C130.014 10.7106 129.229 10.5535 128.431 10.5535C127.56 10.5535 126.738 10.7227 125.965 11.0612C125.191 11.3997 124.514 11.8591 123.934 12.4394C123.354 13.0196 122.894 13.6966 122.556 14.4703C122.217 15.244 122.048 16.066 122.048 16.9364C122.048 17.9035 122.229 18.786 122.592 19.5839C122.955 20.3575 123.426 21.0345 124.006 21.6148C124.611 22.1709 125.3 22.6061 126.074 22.9204C126.847 23.2105 127.633 23.3556 128.431 23.3556C129.398 23.3556 130.268 23.1742 131.042 22.8116C131.84 22.4489 132.517 21.9654 133.073 21.3609C133.629 20.7565 134.052 20.0795 134.342 19.33C134.657 18.5563 134.814 17.7584 134.814 16.9364Z" fill="#0052FF"/>
<path d="M142.071 27.2361V0.362604H146.496V27.2361H142.071Z" fill="#0052FF"/>
<path d="M153.138 5.73005L158.94 18.9311L163.945 5.69378H168.696L160.5 27.3812L160.391 27.5988L158.505 32.6035H153.754L156.656 24.8788L148.278 5.69378L153.138 5.73005Z" fill="#0052FF"/>
<path d="M180.049 12.802C180.097 12.0283 179.855 11.3876 179.323 10.8799C178.816 10.3722 178.139 10.1183 177.292 10.1183C177.147 10.1183 176.93 10.1546 176.64 10.2271C176.349 10.2755 176.047 10.3722 175.733 10.5172C175.419 10.6623 175.141 10.8799 174.899 11.17C174.681 11.436 174.572 11.7866 174.572 12.2218C174.572 12.802 174.838 13.2977 175.37 13.7087C175.926 14.1197 176.567 14.3252 177.292 14.3252C178.163 14.3252 179.009 14.4703 179.831 14.7604C180.677 15.0505 181.427 15.4737 182.08 16.0297C182.732 16.5858 183.276 17.2991 183.711 18.1695C184.147 19.0399 184.364 19.9103 184.364 20.7807C184.364 21.7478 184.159 22.6302 183.748 23.4281C183.361 24.2018 182.841 24.8788 182.188 25.459C181.536 26.0151 180.774 26.4503 179.904 26.7646C179.057 27.0789 178.175 27.2361 177.256 27.2361C176.676 27.2361 176.059 27.1636 175.406 27.0185C174.778 26.8492 174.21 26.6316 173.702 26.3657C172.541 25.7371 171.647 24.8909 171.018 23.827C170.39 22.739 170.099 21.5302 170.148 20.2004H174.5C174.476 20.9982 174.705 21.651 175.189 22.1588C175.697 22.6423 176.386 22.8841 177.256 22.8841C177.957 22.8841 178.586 22.7028 179.142 22.3401C179.698 21.9533 179.976 21.4334 179.976 20.7807C179.976 20.418 179.879 20.1158 179.686 19.874C179.517 19.608 179.299 19.3904 179.033 19.2212C178.767 19.0278 178.465 18.8948 178.126 18.8223C177.812 18.7255 177.522 18.6772 177.256 18.6772C176.361 18.6772 175.491 18.52 174.645 18.2057C173.799 17.8914 173.037 17.4562 172.36 16.9001C171.707 16.3199 171.175 15.6308 170.764 14.8329C170.378 14.0351 170.184 13.1647 170.184 12.2218C170.184 11.2546 170.378 10.3722 170.764 9.5743C171.175 8.77643 171.707 8.09946 172.36 7.54337C173.013 6.96311 173.762 6.51582 174.609 6.20151C175.479 5.8872 176.361 5.73005 177.256 5.73005C178.151 5.73005 179.033 5.8872 179.904 6.20151C180.774 6.51582 181.548 6.9752 182.225 7.57964C182.902 8.18408 183.446 8.9215 183.857 9.7919C184.268 10.6623 184.449 11.6657 184.401 12.802H180.049Z" fill="#0052FF"/>
<path d="M197.062 27.2361C196.071 27.2361 195.128 27.0427 194.233 26.6558C193.363 26.269 192.601 25.7492 191.949 25.0964C191.296 24.4194 190.776 23.6457 190.389 22.7753C190.026 21.8807 189.845 20.9257 189.845 19.9103V9.82816H186.871V5.36738H189.845V0.362604H194.27V5.36738H198.331V9.82816H194.27V20.0191C194.27 20.3817 194.33 20.7323 194.451 21.0708C194.596 21.3851 194.789 21.6752 195.031 21.9412C195.273 22.2071 195.563 22.4247 195.902 22.594C196.24 22.739 196.615 22.8116 197.026 22.8116H200V27.2361H197.062Z" fill="#0052FF"/>
</g>
</g>
</svg>
