<svg width="33" height="27" viewBox="0 0 33 27" fill="none" xmlns="http://www.w3.org/2000/svg">
<g id="dashboard icon">
<path id="Vector" d="M16.2747 2V7.70988" stroke="white" stroke-width="3" stroke-linecap="round" stroke-linejoin="round"/>
<path id="Vector_2" d="M4.85498 7.70996L8.42366 11.2786" stroke="white" stroke-width="3" stroke-linecap="round" stroke-linejoin="round"/>
<path id="Vector_3" d="M24.1257 11.2786L27.6944 7.70996" stroke="white" stroke-width="3" stroke-linecap="round" stroke-linejoin="round"/>
<path id="Vector_4" d="M3.42749 20.5571H7.7099" stroke="white" stroke-width="3" stroke-linecap="round" stroke-linejoin="round"/>
<path id="Vector_5" d="M17.656 16.7353L20.4189 9.36768" stroke="white" stroke-width="3" stroke-linecap="round" stroke-linejoin="round"/>
<path id="Vector_6" d="M24.8396 20.5571H29.122" stroke="white" stroke-width="3" stroke-linecap="round" stroke-linejoin="round"/>
<path id="Vector_7" d="M11.2786 24.841H4.85494C3.06229 22.4549 2 19.4888 2 16.2747C2 8.391 8.391 2 16.2747 2C24.1583 2 30.5494 8.391 30.5494 16.2747C30.5494 19.4888 29.4871 22.4549 27.6945 24.841L21.2709 24.8395" stroke="white" stroke-width="3" stroke-linecap="round" stroke-linejoin="round"/>
<path id="Vector_8" d="M16.4128 25.2999C18.778 25.2999 20.6952 23.3827 20.6952 21.0175C20.6952 18.6523 18.778 16.7351 16.4128 16.7351C14.0476 16.7351 12.1304 18.6523 12.1304 21.0175C12.1304 23.3827 14.0476 25.2999 16.4128 25.2999Z" stroke="white" stroke-width="3" stroke-linecap="round" stroke-linejoin="round"/>
</g>
</svg>
