<svg width="31" height="26" viewBox="0 0 31 26" fill="none" xmlns="http://www.w3.org/2000/svg">
<g id="dashboard icon">
<path id="Vector" d="M15.2747 1V6.70988" stroke="#C6C6C6" stroke-width="2" stroke-linecap="round" stroke-linejoin="round"/>
<path id="Vector_2" d="M3.85498 6.70984L7.42366 10.2785" stroke="#C6C6C6" stroke-width="2" stroke-linecap="round" stroke-linejoin="round"/>
<path id="Vector_3" d="M23.1258 10.2785L26.6945 6.70984" stroke="#C6C6C6" stroke-width="2" stroke-linecap="round" stroke-linejoin="round"/>
<path id="Vector_4" d="M2.42743 19.5571H6.70984" stroke="#C6C6C6" stroke-width="2" stroke-linecap="round" stroke-linejoin="round"/>
<path id="Vector_5" d="M16.6561 15.7351L19.419 8.36755" stroke="#C6C6C6" stroke-width="2" stroke-linecap="round" stroke-linejoin="round"/>
<path id="Vector_6" d="M23.8395 19.5571H28.1219" stroke="#C6C6C6" stroke-width="2" stroke-linecap="round" stroke-linejoin="round"/>
<path id="Vector_7" d="M10.2786 23.841H3.85494C2.06229 21.4549 1 18.4888 1 15.2747C1 7.391 7.391 1 15.2747 1C23.1583 1 29.5494 7.391 29.5494 15.2747C29.5494 18.4888 28.4871 21.4549 26.6945 23.841L20.2709 23.8395" stroke="#C6C6C6" stroke-width="2" stroke-linecap="round" stroke-linejoin="round"/>
<path id="Vector_8" d="M15.4129 24.3001C17.778 24.3001 19.6953 22.3828 19.6953 20.0176C19.6953 17.6525 17.778 15.7352 15.4129 15.7352C13.0477 15.7352 11.1304 17.6525 11.1304 20.0176C11.1304 22.3828 13.0477 24.3001 15.4129 24.3001Z" stroke="#C6C6C6" stroke-width="2" stroke-linecap="round" stroke-linejoin="round"/>
</g>
</svg>
