<svg width="27" height="34" viewBox="0 0 27 34" fill="none" xmlns="http://www.w3.org/2000/svg">
<g id="inventory icon">
<path id="Vector" d="M8.45536 6.30359H4.86905C3.28452 6.30359 2 7.5881 2 9.17264V29.256C2 30.8405 3.28452 32.125 4.86905 32.125H22.0833C23.6679 32.125 24.9524 30.8405 24.9524 29.256V9.17264C24.9524 7.5881 23.6679 6.30359 22.0833 6.30359H18.497" stroke="white" stroke-width="3" stroke-linecap="round"/>
<path id="Vector_2" d="M7.73804 9.74643V7.02083C7.73804 6.6247 8.05917 6.30357 8.4553 6.30357C8.85143 6.30357 9.17862 5.9823 9.24647 5.59202C9.45901 4.36942 10.2829 2 13.4761 2C16.6694 2 17.4932 4.36942 17.7058 5.59202C17.7737 5.9823 18.1009 6.30357 18.497 6.30357C18.893 6.30357 19.2142 6.6247 19.2142 7.02083V9.74643C19.2142 10.2218 18.8289 10.6071 18.3535 10.6071H8.59875C8.12339 10.6071 7.73804 10.2218 7.73804 9.74643Z" stroke="white" stroke-width="3" stroke-linecap="round"/>
</g>
</svg>
