<svg width="25" height="33" viewBox="0 0 25 33" fill="none" xmlns="http://www.w3.org/2000/svg">
<g id="inventory icon">
<path id="Vector" d="M7.45536 5.30347H3.86905C2.28452 5.30347 1 6.58798 1 8.17251V28.2558C1 29.8404 2.28452 31.1249 3.86905 31.1249H21.0833C22.6679 31.1249 23.9524 29.8404 23.9524 28.2558V8.17251C23.9524 6.58798 22.6679 5.30347 21.0833 5.30347H17.497" stroke="#C6C6C6" stroke-width="2" stroke-linecap="round"/>
<path id="Vector_2" d="M6.73804 8.74643V6.02083C6.73804 5.6247 7.05917 5.30357 7.4553 5.30357C7.85143 5.30357 8.17862 4.9823 8.24647 4.59202C8.45901 3.36942 9.28287 1 12.4761 1C15.6694 1 16.4932 3.36942 16.7058 4.59202C16.7737 4.9823 17.1009 5.30357 17.497 5.30357C17.893 5.30357 18.2142 5.6247 18.2142 6.02083V8.74643C18.2142 9.22179 17.8289 9.60714 17.3535 9.60714H7.59875C7.12339 9.60714 6.73804 9.22179 6.73804 8.74643Z" stroke="#C6C6C6" stroke-width="2" stroke-linecap="round"/>
</g>
</svg>
